<svg xmlns="http://www.w3.org/2000/svg" viewBox="0 0 256.48 78.37"><defs><style>.cls-1{fill:#f9f9f9}.cls-2,.cls-3,.cls-4{fill:none;stroke-miterlimit:10}.cls-2,.cls-3{stroke:#fcfcfc;stroke-width:3px}.cls-3{stroke:#f9f9f9}.cls-4{stroke:#fff;stroke-width:2px}.cls-5{fill:#fff}</style></defs><g id="Layer_2" data-name="Layer 2"><g id="Layer_1-2" data-name="Layer 1"><path d="M15.82,30.07v2.5a6,6,0,0,1,5.57-2.93,6.57,6.57,0,0,1,6.15,3.43,7.06,7.06,0,0,1,6.33-3.43c4.29,0,7,2.79,7,7.61v11H36.26V37.79c0-2.61-1.5-4-3.64-4-2.86,0-4.15,2.61-4.15,5.11v9.4H23.82V37.79c0-2.61-1.53-4-3.68-4C17.25,33.79,16,36.4,16,38.9v9.4H11.35V30.07Z" class="cls-1"/><path d="M44.23,44.62l3.14-2.33A5.08,5.08,0,0,0,51.73,45c1.72,0,2.76-.61,2.76-1.58,0-1.14-1-1.61-3.94-2.61-3.71-1.25-5.71-2.71-5.71-5.72s3.07-5.43,7-5.43a7.36,7.36,0,0,1,6.65,3.61L55.38,35.5a4,4,0,0,0-3.61-2.14c-1.47,0-2.57.68-2.57,1.68s1,1.46,3.79,2.46c3.46,1.26,5.86,2.47,5.86,5.79,0,3.08-2.9,5.44-7.12,5.44A8.29,8.29,0,0,1,44.23,44.62Z" class="cls-1"/><g id="Hex"><path d="M67.86,20.58a7.12,7.12,0,0,0-2.76-2.87L38.69,2.46a7.18,7.18,0,0,0-3.59-1" class="cls-2"/><path d="M67.73,58a7.21,7.21,0,0,0,1-3.59V23.93a7.11,7.11,0,0,0-.84-3.35" class="cls-3"/><path d="M35.1,76.87a7.18,7.18,0,0,0,3.59-1L65.1,60.66A7.21,7.21,0,0,0,67.73,58" class="cls-2"/><path d="M2.46,58a7.29,7.29,0,0,0,2.63,2.63L31.51,75.91a7.18,7.18,0,0,0,3.59,1" class="cls-2"/><path d="M2.3,20.64a7.14,7.14,0,0,0-.8,3.29V54.44a7.2,7.2,0,0,0,1,3.59" class="cls-3"/><path d="M35.1,1.5a7.18,7.18,0,0,0-3.59,1L5.09,17.71A7.21,7.21,0,0,0,2.3,20.64" class="cls-2"/></g><line x1="117.87" x2="88.02" y1="60.3" y2="60.3" class="cls-4"/><path d="M121.66,40.86h4.26V48A4.84,4.84,0,0,1,130,46.12c3.38,0,5.57,2.24,5.57,6v8.73h-4.26V52.73c0-1.87-1-2.85-2.57-2.85-1.88,0-2.83,1.48-2.83,3.38v7.56h-4.26Z" class="cls-5"/><path d="M146.67,51.78c0-1.43-1.1-2-2.55-2a4.87,4.87,0,0,0-3.7,1.74l-2.21-2.69a7.84,7.84,0,0,1,6.16-2.72c4,0,6.38,2.16,6.38,5.66v9h-3.94V59.06a4.3,4.3,0,0,1-4,2.1c-2.8,0-4.76-1.79-4.76-4.28,0-2.13,1.65-3.59,4.68-4.23l3.92-.76Zm0,3.22v-.42l-2.85.56c-1.15.2-1.71.7-1.71,1.48s.64,1.37,1.65,1.37A2.82,2.82,0,0,0,146.69,55Z" class="cls-5"/><path d="M158.43,46.46v1.85a4.65,4.65,0,0,1,4.25-2.19c3.45,0,5.57,2.24,5.57,6v8.73H164V52.73c0-1.87-1-2.85-2.58-2.85-1.85,0-2.83,1.59-2.83,3.47v7.47h-4.25V46.46Z" class="cls-5"/><path d="M182,58.81a5.46,5.46,0,0,1-4.54,2.35c-3.64,0-6.66-3.08-6.66-7.51s2.83-7.53,6.75-7.53a4.87,4.87,0,0,1,4.14,2.07V40.86H186v20H182Zm-.2-5.21a3.38,3.38,0,1,0-6.72,0c0,2.32,1.52,3.81,3.34,3.81S181.83,56,181.83,53.6Z" class="cls-5"/><path d="M193.79,60.82h-3.95v-20h4.26v7.33a4.87,4.87,0,0,1,4.14-2.07c3.92,0,6.75,3.25,6.75,7.53s-3,7.51-6.66,7.51a5.46,5.46,0,0,1-4.54-2.35Zm6.92-7.22a3.38,3.38,0,1,0-6.72,0c0,2.35,1.48,3.81,3.38,3.81S200.71,55.92,200.71,53.6Z" class="cls-5"/><path d="M222.1,53.63a7.7,7.7,0,1,1-7.7-7.51A7.43,7.43,0,0,1,222.1,53.63Zm-11.09,0a3.41,3.41,0,1,0,6.78,0,3.41,3.41,0,1,0-6.78,0Z" class="cls-5"/><path d="M239.18,53.63a7.7,7.7,0,1,1-7.7-7.51A7.43,7.43,0,0,1,239.18,53.63Zm-11.09,0a3.41,3.41,0,1,0,6.78,0,3.41,3.41,0,1,0-6.78,0Z" class="cls-5"/><path d="M246.2,40.86V51.78l4.74-5.32h5l-5.29,6,5.82,8.4h-5.07l-3.92-6-1.29,1.46v4.53H242v-20Z" class="cls-5"/><path d="M101.74,27.1a7.18,7.18,0,0,1-6,3.08,7.52,7.52,0,1,1,0-15,6.85,6.85,0,0,1,6,3.25l-2.83,2.49a3.51,3.51,0,0,0-3.13-2,3.47,3.47,0,0,0-3.42,3.72A3.46,3.46,0,0,0,95.8,26.4,4,4,0,0,0,99,24.64Z" class="cls-5"/><path d="M118.2,22.65a7.7,7.7,0,1,1-7.7-7.5A7.43,7.43,0,0,1,118.2,22.65Zm-11.09,0a3.41,3.41,0,1,0,6.78,0,3.4,3.4,0,1,0-6.78,0Z" class="cls-5"/><path d="M125.06,15.48v1.85a4.66,4.66,0,0,1,4.2-2.18A5.22,5.22,0,0,1,134,17.67a5.47,5.47,0,0,1,4.85-2.52c3.44,0,5.54,2.24,5.54,6v8.74h-4.26V21.76c0-1.88-1-2.86-2.54-2.86-1.8,0-2.78,1.6-2.78,3.47v7.48h-4.25V21.76c0-1.88-1-2.86-2.58-2.86-1.79,0-2.77,1.6-2.77,3.47v7.48H121V15.48Z" class="cls-5"/><path d="M152.14,15.48v1.85a4.64,4.64,0,0,1,4.2-2.18,5.22,5.22,0,0,1,4.76,2.52,5.45,5.45,0,0,1,4.84-2.52c3.45,0,5.55,2.24,5.55,6v8.74h-4.26V21.76c0-1.88-1-2.86-2.55-2.86-1.79,0-2.77,1.6-2.77,3.47v7.48h-4.26V21.76c0-1.88-1-2.86-2.57-2.86-1.79,0-2.77,1.6-2.77,3.47v7.48h-4.26V15.48Z" class="cls-5"/><path d="M179.16,15.48v8.1c0,1.87,1,2.85,2.57,2.85,1.88,0,2.83-1.59,2.83-3.47V15.48h4.26V29.85h-4.09V28a4.65,4.65,0,0,1-4.26,2.18c-3.44,0-5.57-2.24-5.57-6V15.48Z" class="cls-5"/><path d="M196.77,15.48v1.85A4.67,4.67,0,0,1,201,15.15c3.44,0,5.57,2.24,5.57,6v8.74h-4.26V21.76c0-1.88-1-2.86-2.57-2.86-1.85,0-2.83,1.6-2.83,3.47v7.48h-4.26V15.48Z" class="cls-5"/><path d="M214.69,11.4a2.3,2.3,0,0,1-2.38,2.29,2.28,2.28,0,1,1,2.38-2.29Zm-4.45,4.08h4.25V29.85h-4.25Z" class="cls-5"/><path d="M218.92,15.48V11.59H223v3.89h3.22v3.36H223V24.5a1.66,1.66,0,0,0,1.8,1.9,3.23,3.23,0,0,0,1.82-.5v3.67a6.54,6.54,0,0,1-3,.61c-3,0-4.87-1.79-4.87-5V18.84h-1.93V15.48Z" class="cls-5"/><path d="M226.84,15.48h4.45l3.34,9.41L238,15.48h4.34L236.05,31c-1.42,3.48-3.16,4.76-5.88,4.76a6.13,6.13,0,0,1-2.57-.53V31.72a3.94,3.94,0,0,0,2,.48c1.12,0,2.15-.36,2.77-2.41l.17-.47Z" class="cls-5"/></g></g></svg>
