<svg xmlns="http://www.w3.org/2000/svg" viewBox="0 0 290.94 119"><defs><style>.cls-1{fill:#fff}.cls-2,.cls-4,.cls-5,.cls-6{fill:none;stroke-miterlimit:10}.cls-2,.cls-5{stroke:#5936d9}.cls-2{stroke-width:2px}.cls-3{fill:#5936d9}.cls-4{stroke:#36d9c8}.cls-4,.cls-5,.cls-6{stroke-width:3px}.cls-6{stroke:#ce81fd}</style></defs><g id="Layer_2" data-name="Layer 2"><g id="Layer_1-2" data-name="Layer 1"><rect width="290.94" height="119" class="cls-1"/><line x1="134.35" x2="104.5" y1="80.61" y2="80.61" class="cls-2"/><path d="M138.14,61.17h4.26v7.17a4.83,4.83,0,0,1,4.09-1.9c3.38,0,5.57,2.24,5.57,6v8.74H147.8V73.05c0-1.88-1-2.86-2.58-2.86-1.87,0-2.82,1.48-2.82,3.39v7.56h-4.26Z" class="cls-3"/><path d="M163.14,72.09c0-1.42-1.09-2-2.54-2a4.86,4.86,0,0,0-3.7,1.73l-2.21-2.69a7.85,7.85,0,0,1,6.16-2.71c4,0,6.38,2.15,6.38,5.65v9h-3.95V79.37a4.27,4.27,0,0,1-4,2.1c-2.8,0-4.76-1.79-4.76-4.28,0-2.13,1.65-3.58,4.67-4.23l3.92-.75Zm0,3.22v-.42l-2.85.56c-1.15.2-1.71.7-1.71,1.49s.64,1.37,1.65,1.37A2.83,2.83,0,0,0,163.17,75.31Z" class="cls-3"/><path d="M174.9,66.77v1.85a4.69,4.69,0,0,1,4.26-2.18c3.44,0,5.57,2.24,5.57,6v8.74h-4.25V73.05c0-1.88-1-2.86-2.58-2.86-1.85,0-2.83,1.6-2.83,3.47v7.48h-4.25V66.77Z" class="cls-3"/><path d="M198.51,79.12A5.43,5.43,0,0,1,194,81.47c-3.64,0-6.66-3.08-6.66-7.5s2.83-7.53,6.75-7.53a4.86,4.86,0,0,1,4.14,2.07V61.17h4.26v20h-4Zm-.2-5.21a3.38,3.38,0,1,0-6.72,0c0,2.33,1.51,3.81,3.33,3.81S198.31,76.27,198.31,73.91Z" class="cls-3"/><path d="M210.27,81.14h-4v-20h4.26v7.34a4.84,4.84,0,0,1,4.14-2.07c3.92,0,6.75,3.25,6.75,7.53s-3,7.5-6.67,7.5a5.41,5.41,0,0,1-4.53-2.35Zm6.91-7.23a3.38,3.38,0,1,0-6.72,0c0,2.36,1.49,3.81,3.39,3.81S217.18,76.24,217.18,73.91Z" class="cls-3"/><path d="M238.58,73.94a7.7,7.7,0,1,1-7.7-7.5A7.43,7.43,0,0,1,238.58,73.94Zm-11.09,0a3.4,3.4,0,1,0,3.39-3.72A3.44,3.44,0,0,0,227.49,73.94Z" class="cls-3"/><path d="M255.66,73.94a7.7,7.7,0,1,1-7.7-7.5A7.43,7.43,0,0,1,255.66,73.94Zm-11.09,0A3.4,3.4,0,1,0,248,70.22,3.44,3.44,0,0,0,244.57,73.94Z" class="cls-3"/><path d="M262.68,61.17V72.09l4.74-5.32h5l-5.3,6,5.83,8.4h-5.07l-3.92-6-1.29,1.45v4.54h-4.25v-20Z" class="cls-3"/><path d="M118.22,47.42a7.22,7.22,0,0,1-6,3.08,7.52,7.52,0,1,1,0-15,6.88,6.88,0,0,1,6,3.25l-2.83,2.49a3.53,3.53,0,0,0-3.14-2A3.48,3.48,0,0,0,108.81,43a3.46,3.46,0,0,0,3.47,3.75A4,4,0,0,0,115.5,45Z" class="cls-3"/><path d="M134.68,43a7.7,7.7,0,1,1-7.7-7.51A7.43,7.43,0,0,1,134.68,43Zm-11.09,0a3.41,3.41,0,1,0,6.78,0,3.41,3.41,0,1,0-6.78,0Z" class="cls-3"/><path d="M141.54,35.8v1.85a4.63,4.63,0,0,1,4.2-2.19A5.24,5.24,0,0,1,150.5,38a5.48,5.48,0,0,1,4.84-2.52c3.45,0,5.55,2.24,5.55,6v8.73h-4.26V42.07c0-1.87-1-2.85-2.55-2.85-1.79,0-2.77,1.59-2.77,3.47v7.47h-4.25V42.07c0-1.87-1-2.85-2.58-2.85-1.79,0-2.77,1.59-2.77,3.47v7.47h-4.26V35.8Z" class="cls-3"/><path d="M168.62,35.8v1.85a4.63,4.63,0,0,1,4.2-2.19A5.24,5.24,0,0,1,177.58,38a5.46,5.46,0,0,1,4.84-2.52c3.44,0,5.54,2.24,5.54,6v8.73h-4.25V42.07c0-1.87-1-2.85-2.55-2.85-1.79,0-2.77,1.59-2.77,3.47v7.47h-4.26V42.07c0-1.87-1-2.85-2.57-2.85-1.8,0-2.78,1.59-2.78,3.47v7.47h-4.25V35.8Z" class="cls-3"/><path d="M195.64,35.8v8.09c0,1.88,1,2.86,2.57,2.86,1.88,0,2.83-1.6,2.83-3.47V35.8h4.26V50.16h-4.09V48.32A4.69,4.69,0,0,1,197,50.5c-3.44,0-5.57-2.24-5.57-6V35.8Z" class="cls-3"/><path d="M213.25,35.8v1.85a4.65,4.65,0,0,1,4.25-2.19c3.45,0,5.58,2.24,5.58,6v8.73h-4.26V42.07c0-1.87-1-2.85-2.58-2.85-1.84,0-2.82,1.59-2.82,3.47v7.47h-4.26V35.8Z" class="cls-3"/><path d="M231.17,31.71a2.31,2.31,0,0,1-2.38,2.3,2.29,2.29,0,1,1,2.38-2.3Zm-4.45,4.09H231V50.16h-4.25Z" class="cls-3"/><path d="M235.4,35.8V31.91h4.11V35.8h3.22v3.36h-3.22v5.66a1.66,1.66,0,0,0,1.79,1.9,3.19,3.19,0,0,0,1.82-.5v3.66a6.38,6.38,0,0,1-3,.62c-3,0-4.87-1.79-4.87-5V39.16h-1.94V35.8Z" class="cls-3"/><path d="M243.32,35.8h4.45l3.33,9.41,3.36-9.41h4.34l-6.27,15.54c-1.43,3.47-3.16,4.76-5.88,4.76a6.09,6.09,0,0,1-2.57-.53V52a3.94,3.94,0,0,0,2,.48c1.12,0,2.15-.37,2.77-2.41l.17-.48Z" class="cls-3"/><path d="M32.29,50.39v2.5A6,6,0,0,1,37.87,50,6.57,6.57,0,0,1,44,53.39,7,7,0,0,1,50.35,50c4.28,0,7,2.78,7,7.61v11H52.74V58.11c0-2.61-1.5-4-3.65-4-2.85,0-4.14,2.61-4.14,5.11v9.4H40.3V58.11c0-2.61-1.54-4-3.68-4-2.9,0-4.15,2.61-4.15,5.11v9.4H27.83V50.39Z" class="cls-3"/><path d="M60.71,64.93l3.14-2.32a5.09,5.09,0,0,0,4.36,2.68c1.72,0,2.75-.61,2.75-1.57,0-1.15-1-1.61-3.93-2.61-3.71-1.25-5.72-2.72-5.72-5.72s3.08-5.43,7-5.43A7.36,7.36,0,0,1,75,53.57l-3.11,2.25a4,4,0,0,0-3.61-2.15c-1.47,0-2.57.68-2.57,1.68s1,1.47,3.78,2.47c3.47,1.25,5.87,2.47,5.87,5.79,0,3.07-2.9,5.43-7.12,5.43A8.26,8.26,0,0,1,60.71,64.93Z" class="cls-3"/><g id="Hex"><path d="M84.34,40.89A7.22,7.22,0,0,0,81.58,38L55.17,22.78a7.18,7.18,0,0,0-3.59-1" class="cls-4"/><path d="M84.21,78.34a7.17,7.17,0,0,0,1-3.59V44.25a7.17,7.17,0,0,0-.83-3.36" class="cls-5"/><path d="M51.58,97.18a7.18,7.18,0,0,0,3.59-1L81.58,81a7.14,7.14,0,0,0,2.63-2.63" class="cls-6"/><path d="M18.94,78.34A7.14,7.14,0,0,0,21.57,81L48,96.22a7.18,7.18,0,0,0,3.59,1" class="cls-4"/><path d="M18.78,41a7.11,7.11,0,0,0-.8,3.29v30.5a7.17,7.17,0,0,0,1,3.59" class="cls-5"/><path d="M51.58,21.82a7.18,7.18,0,0,0-3.59,1L21.57,38A7.15,7.15,0,0,0,18.78,41" class="cls-6"/></g></g></g></svg>
