<svg xmlns="http://www.w3.org/2000/svg" viewBox="0 0 290.94 119"><defs><style>.cls-1{fill:#b776b7;}.cls-2{fill:#f9f9f9;}.cls-3,.cls-4,.cls-5{fill:none;stroke-miterlimit:10;}.cls-3{stroke:#fcfcfc;}.cls-3,.cls-4{stroke-width:3px;}.cls-4{stroke:#f9f9f9;}.cls-5{stroke:#fff;stroke-width:2px;}.cls-6{fill:#fff;}</style></defs><g id="Layer_2" data-name="Layer 2"><g id="Layer_1-2" data-name="Layer 1"><rect class="cls-1" width="290.94" height="119"/><path class="cls-2" d="M35.23,50.39v2.5A5.94,5.94,0,0,1,40.8,50,6.57,6.57,0,0,1,47,53.39,7,7,0,0,1,53.28,50c4.29,0,7,2.78,7,7.61v11H55.67V58.11c0-2.61-1.5-4-3.64-4-2.86,0-4.15,2.61-4.15,5.11v9.4H43.23V58.11c0-2.61-1.53-4-3.68-4-2.89,0-4.15,2.61-4.15,5.11v9.4H30.76V50.39Z"/><path class="cls-2" d="M63.64,64.93l3.14-2.32a5.09,5.09,0,0,0,4.36,2.68c1.72,0,2.76-.61,2.76-1.57,0-1.15-1-1.61-3.94-2.61-3.71-1.25-5.71-2.72-5.71-5.72s3.07-5.43,7-5.43a7.36,7.36,0,0,1,6.65,3.61l-3.11,2.25a4,4,0,0,0-3.61-2.15c-1.47,0-2.57.68-2.57,1.68s1,1.47,3.79,2.47c3.46,1.25,5.86,2.47,5.86,5.79,0,3.07-2.9,5.43-7.12,5.43A8.27,8.27,0,0,1,63.64,64.93Z"/><g id="Hex"><path class="cls-3" d="M87.27,40.89A7.15,7.15,0,0,0,84.51,38L58.1,22.78a7.18,7.18,0,0,0-3.59-1"/><path class="cls-4" d="M87.14,78.34a7.18,7.18,0,0,0,1-3.59V44.25a7.18,7.18,0,0,0-.84-3.36"/><path class="cls-3" d="M54.51,97.18a7.18,7.18,0,0,0,3.59-1L84.51,81a7.06,7.06,0,0,0,2.63-2.63"/><path class="cls-3" d="M21.87,78.34A7.14,7.14,0,0,0,24.5,81L50.92,96.22a7.18,7.18,0,0,0,3.59,1"/><path class="cls-4" d="M21.71,41a7.11,7.11,0,0,0-.8,3.29v30.5a7.17,7.17,0,0,0,1,3.59"/><path class="cls-3" d="M54.51,21.82a7.18,7.18,0,0,0-3.59,1L24.5,38A7.15,7.15,0,0,0,21.71,41"/></g><line class="cls-5" x1="137.28" y1="80.61" x2="107.43" y2="80.61"/><path class="cls-6" d="M141.07,61.17h4.26v7.17a4.83,4.83,0,0,1,4.09-1.9c3.38,0,5.57,2.24,5.57,6v8.74h-4.26V73.05c0-1.88-1-2.86-2.57-2.86-1.88,0-2.83,1.48-2.83,3.39v7.56h-4.26Z"/><path class="cls-6" d="M166.08,72.09c0-1.42-1.1-2-2.55-2a4.86,4.86,0,0,0-3.7,1.73l-2.21-2.69a7.87,7.87,0,0,1,6.16-2.71c4,0,6.38,2.15,6.38,5.65v9h-3.94V79.37a4.3,4.3,0,0,1-4,2.1c-2.8,0-4.76-1.79-4.76-4.28,0-2.13,1.65-3.58,4.68-4.23l3.92-.75Zm0,3.22v-.42l-2.85.56c-1.15.2-1.71.7-1.71,1.49s.64,1.37,1.65,1.37A2.83,2.83,0,0,0,166.1,75.31Z"/><path class="cls-6" d="M177.84,66.77v1.85a4.67,4.67,0,0,1,4.25-2.18c3.45,0,5.57,2.24,5.57,6v8.74h-4.25V73.05c0-1.88-1-2.86-2.58-2.86-1.85,0-2.83,1.6-2.83,3.47v7.48h-4.25V66.77Z"/><path class="cls-6" d="M201.44,79.12a5.43,5.43,0,0,1-4.54,2.35c-3.64,0-6.66-3.08-6.66-7.5s2.83-7.53,6.75-7.53a4.84,4.84,0,0,1,4.14,2.07V61.17h4.26v20h-3.95Zm-.2-5.21a3.38,3.38,0,1,0-6.72,0c0,2.33,1.52,3.81,3.34,3.81S201.24,76.27,201.24,73.91Z"/><path class="cls-6" d="M213.2,81.14h-3.95v-20h4.26v7.34a4.84,4.84,0,0,1,4.14-2.07c3.92,0,6.75,3.25,6.75,7.53s-3,7.5-6.66,7.5a5.43,5.43,0,0,1-4.54-2.35Zm6.92-7.23a3.38,3.38,0,1,0-6.72,0c0,2.36,1.48,3.81,3.38,3.81S220.12,76.24,220.12,73.91Z"/><path class="cls-6" d="M241.51,73.94a7.7,7.7,0,1,1-7.7-7.5A7.43,7.43,0,0,1,241.51,73.94Zm-11.09,0a3.4,3.4,0,1,0,3.39-3.72A3.45,3.45,0,0,0,230.42,73.94Z"/><path class="cls-6" d="M258.59,73.94a7.7,7.7,0,1,1-7.7-7.5A7.43,7.43,0,0,1,258.59,73.94Zm-11.09,0a3.4,3.4,0,1,0,3.39-3.72A3.45,3.45,0,0,0,247.5,73.94Z"/><path class="cls-6" d="M265.61,61.17V72.09l4.74-5.32h5l-5.29,6,5.82,8.4h-5.07l-3.92-6-1.29,1.45v4.54h-4.25v-20Z"/><path class="cls-6" d="M121.15,47.42a7.2,7.2,0,0,1-6.05,3.08,7.52,7.52,0,1,1,0-15,6.87,6.87,0,0,1,6.05,3.25l-2.83,2.49A3.45,3.45,0,0,0,111.74,43a3.46,3.46,0,0,0,3.47,3.75A4,4,0,0,0,118.43,45Z"/><path class="cls-6" d="M137.61,43a7.7,7.7,0,1,1-7.7-7.51A7.43,7.43,0,0,1,137.61,43Zm-11.09,0a3.41,3.41,0,1,0,6.78,0,3.41,3.41,0,1,0-6.78,0Z"/><path class="cls-6" d="M144.47,35.8v1.85a4.65,4.65,0,0,1,4.2-2.19A5.24,5.24,0,0,1,153.43,38a5.49,5.49,0,0,1,4.85-2.52c3.44,0,5.54,2.24,5.54,6v8.73h-4.26V42.07c0-1.87-1-2.85-2.54-2.85-1.8,0-2.78,1.59-2.78,3.47v7.47H150V42.07c0-1.87-1-2.85-2.58-2.85-1.79,0-2.77,1.59-2.77,3.47v7.47h-4.26V35.8Z"/><path class="cls-6" d="M171.55,35.8v1.85a4.63,4.63,0,0,1,4.2-2.19A5.24,5.24,0,0,1,180.51,38a5.47,5.47,0,0,1,4.84-2.52c3.45,0,5.55,2.24,5.55,6v8.73h-4.26V42.07c0-1.87-1-2.85-2.55-2.85-1.79,0-2.77,1.59-2.77,3.47v7.47h-4.26V42.07c0-1.87-1-2.85-2.57-2.85-1.79,0-2.77,1.59-2.77,3.47v7.47h-4.26V35.8Z"/><path class="cls-6" d="M198.57,35.8v8.09c0,1.88,1,2.86,2.57,2.86,1.88,0,2.83-1.6,2.83-3.47V35.8h4.26V50.16h-4.09V48.32a4.67,4.67,0,0,1-4.26,2.18c-3.44,0-5.57-2.24-5.57-6V35.8Z"/><path class="cls-6" d="M216.18,35.8v1.85a4.66,4.66,0,0,1,4.26-2.19c3.44,0,5.57,2.24,5.57,6v8.73h-4.26V42.07c0-1.87-1-2.85-2.57-2.85-1.85,0-2.83,1.59-2.83,3.47v7.47h-4.26V35.8Z"/><path class="cls-6" d="M234.1,31.71a2.31,2.31,0,0,1-2.38,2.3,2.29,2.29,0,1,1,2.38-2.3Zm-4.45,4.09h4.25V50.16h-4.25Z"/><path class="cls-6" d="M238.33,35.8V31.91h4.11V35.8h3.22v3.36h-3.22v5.66a1.66,1.66,0,0,0,1.8,1.9,3.23,3.23,0,0,0,1.82-.5v3.66a6.4,6.4,0,0,1-3,.62c-3,0-4.87-1.79-4.87-5V39.16h-1.93V35.8Z"/><path class="cls-6" d="M246.25,35.8h4.45L254,45.21l3.36-9.41h4.34l-6.28,15.54c-1.42,3.47-3.16,4.76-5.88,4.76a6.13,6.13,0,0,1-2.57-.53V52a3.94,3.94,0,0,0,2,.48c1.12,0,2.15-.37,2.77-2.41l.17-.48Z"/></g></g></svg>