<svg xmlns="http://www.w3.org/2000/svg" viewBox="0 0 203.72 103.67"><defs><style>.cls-1{fill:#160e36}.cls-2{fill:none;stroke:#ce89ff;stroke-miterlimit:10;stroke-width:2px}.cls-3{fill:#ce89ff}</style></defs><g id="Layer_2" data-name="Layer 2"><g id="Layer_1-2" data-name="Layer 1"><rect width="203.72" height="103.67" class="cls-1"/><line x1="47.48" x2="17.63" y1="76.99" y2="76.99" class="cls-2"/><path d="M51.27,57.55h4.26v7.17a4.83,4.83,0,0,1,4.09-1.9c3.38,0,5.57,2.24,5.57,6v8.74H60.93v-8.1c0-1.87-1-2.85-2.57-2.85-1.88,0-2.83,1.48-2.83,3.39v7.56H51.27Z" class="cls-3"/><path d="M76.28,68.47c0-1.43-1.1-2-2.55-2A4.87,4.87,0,0,0,70,68.22l-2.21-2.69A7.87,7.87,0,0,1,74,62.82c4,0,6.38,2.15,6.38,5.65v9h-4V75.75a4.27,4.27,0,0,1-4,2.1c-2.8,0-4.76-1.79-4.76-4.28,0-2.13,1.65-3.59,4.68-4.23l3.92-.76Zm0,3.22v-.42l-2.85.56c-1.15.2-1.71.7-1.71,1.49s.64,1.37,1.65,1.37A2.83,2.83,0,0,0,76.3,71.69Z" class="cls-3"/><path d="M88,63.15V65a4.67,4.67,0,0,1,4.26-2.18c3.45,0,5.57,2.24,5.57,6v8.74H93.61v-8.1c0-1.87-1-2.85-2.58-2.85-1.85,0-2.83,1.59-2.83,3.47v7.48H84V63.15Z" class="cls-3"/><path d="M111.64,75.5a5.43,5.43,0,0,1-4.54,2.35c-3.64,0-6.66-3.08-6.66-7.5s2.83-7.53,6.75-7.53a4.86,4.86,0,0,1,4.14,2.07V57.55h4.26v20h-4Zm-.2-5.21a3.38,3.38,0,1,0-6.72,0c0,2.33,1.52,3.81,3.34,3.81S111.44,72.64,111.44,70.29Z" class="cls-3"/><path d="M123.4,77.52h-4v-20h4.26v7.34a4.84,4.84,0,0,1,4.14-2.07c3.92,0,6.75,3.24,6.75,7.53s-3,7.5-6.66,7.5a5.43,5.43,0,0,1-4.54-2.35Zm6.92-7.23a3.38,3.38,0,1,0-6.72,0c0,2.35,1.48,3.81,3.38,3.81S130.32,72.62,130.32,70.29Z" class="cls-3"/><path d="M151.71,70.32a7.7,7.7,0,1,1-7.7-7.5A7.43,7.43,0,0,1,151.71,70.32Zm-11.09,0A3.4,3.4,0,1,0,144,66.6,3.44,3.44,0,0,0,140.62,70.32Z" class="cls-3"/><path d="M168.79,70.32a7.7,7.7,0,1,1-7.7-7.5A7.43,7.43,0,0,1,168.79,70.32Zm-11.09,0a3.4,3.4,0,1,0,3.39-3.72A3.44,3.44,0,0,0,157.7,70.32Z" class="cls-3"/><path d="M175.81,57.55V68.47l4.74-5.32h5l-5.29,6,5.82,8.4H181l-3.92-6L175.81,73v4.54h-4.25v-20Z" class="cls-3"/><path d="M31.35,43.8a7.22,7.22,0,0,1-6.05,3.08,7.52,7.52,0,1,1,0-15,6.86,6.86,0,0,1,6.05,3.25l-2.83,2.49a3.45,3.45,0,0,0-6.55,1.77,3.46,3.46,0,0,0,3.47,3.75,4,4,0,0,0,3.22-1.77Z" class="cls-3"/><path d="M47.81,39.35a7.44,7.44,0,0,1-7.7,7.53,7.52,7.52,0,1,1,0-15A7.4,7.4,0,0,1,47.81,39.35Zm-11.09,0a3.41,3.41,0,1,0,6.78,0,3.41,3.41,0,1,0-6.78,0Z" class="cls-3"/><path d="M54.67,32.18V34a4.64,4.64,0,0,1,4.2-2.19,5.24,5.24,0,0,1,4.76,2.52,5.49,5.49,0,0,1,4.85-2.52c3.44,0,5.54,2.24,5.54,6v8.73H69.76V38.45c0-1.88-1-2.86-2.55-2.86-1.79,0-2.77,1.6-2.77,3.48v7.47H60.19V38.45c0-1.88-1-2.86-2.58-2.86-1.79,0-2.77,1.6-2.77,3.48v7.47H50.58V32.18Z" class="cls-3"/><path d="M81.75,32.18V34A4.63,4.63,0,0,1,86,31.84a5.24,5.24,0,0,1,4.76,2.52,5.46,5.46,0,0,1,4.84-2.52c3.44,0,5.55,2.24,5.55,6v8.73H96.84V38.45c0-1.88-1-2.86-2.55-2.86-1.79,0-2.77,1.6-2.77,3.48v7.47H87.26V38.45c0-1.88-1-2.86-2.57-2.86-1.79,0-2.78,1.6-2.78,3.48v7.47H77.66V32.18Z" class="cls-3"/><path d="M108.77,32.18v8.09c0,1.88,1,2.86,2.57,2.86,1.88,0,2.83-1.6,2.83-3.48V32.18h4.26V46.54h-4.09V44.69a4.68,4.68,0,0,1-4.26,2.19c-3.44,0-5.57-2.24-5.57-6V32.18Z" class="cls-3"/><path d="M126.38,32.18V34a4.66,4.66,0,0,1,4.26-2.19c3.44,0,5.57,2.24,5.57,6v8.73H132V38.45c0-1.88-1-2.86-2.58-2.86-1.84,0-2.82,1.6-2.82,3.48v7.47h-4.26V32.18Z" class="cls-3"/><path d="M144.3,28.09a2.31,2.31,0,0,1-2.38,2.3,2.28,2.28,0,0,1-2.35-2.3,2.26,2.26,0,0,1,2.35-2.27A2.28,2.28,0,0,1,144.3,28.09Zm-4.45,4.09h4.25V46.54h-4.25Z" class="cls-3"/><path d="M148.53,32.18V28.29h4.11v3.89h3.22v3.36h-3.22v5.65a1.66,1.66,0,0,0,1.8,1.91,3.2,3.2,0,0,0,1.81-.51v3.67a6.38,6.38,0,0,1-3,.62c-3,0-4.87-1.79-4.87-5V35.54h-1.94V32.18Z" class="cls-3"/><path d="M156.45,32.18h4.45l3.33,9.41,3.36-9.41h4.34l-6.27,15.54c-1.43,3.47-3.16,4.76-5.88,4.76a6.25,6.25,0,0,1-2.57-.53V48.42a3.92,3.92,0,0,0,2,.47c1.12,0,2.15-.36,2.77-2.4l.17-.48Z" class="cls-3"/></g></g></svg>