<svg xmlns="http://www.w3.org/2000/svg" viewBox="0 0 290.98 290.98"><defs><style>.a{isolation:isolate;}.b{fill:#283069;}.c{fill:#2f3b77;stroke:#fbddec;stroke-miterlimit:10;}.d{fill:#fbddec;}.e{fill:#e7579a;}.f{fill:#e7e8e9;mix-blend-mode:multiply;}.g{fill:#ed837e;}.h{fill:#fff;}</style></defs><g class="a"><circle class="b" cx="145.49" cy="145.49" r="144.99"/><path class="c" d="M145.49,30.56a145,145,0,1,0,145,145A145,145,0,0,0,145.49,30.56Zm0,257.3A112.31,112.31,0,1,1,257.8,175.55,112.31,112.31,0,0,1,145.49,287.86Z" transform="translate(0 -30.06)"/><path class="d" d="M76.07,229.11a44.36,44.36,0,0,1-6.22-29.57,21.37,21.37,0,0,1,2-6.66,10.41,10.41,0,0,1,3.78-4.26,7.31,7.31,0,0,1,2.24-1,5.22,5.22,0,0,1,1-.12,3.58,3.58,0,0,1,.91.1,5.15,5.15,0,0,1,1.78.71A8.26,8.26,0,0,1,83.37,190a19.61,19.61,0,0,1,3.19,5.5c.8,2,1.55,4.8,2.56,7.63a34.62,34.62,0,0,0,4.48,9,20.14,20.14,0,0,0,10.18,7.41,23.93,23.93,0,0,0,13.18.15,28.74,28.74,0,0,0,11.29-5.83,30.34,30.34,0,0,0,4.25-4.52,31.16,31.16,0,0,0,3.1-5,37.17,37.17,0,0,0,3.4-10.3,44.19,44.19,0,0,0,.56-10.18,36.72,36.72,0,0,0-2.05-10.28,28.42,28.42,0,0,0-5.87-9.73,29.76,29.76,0,0,0-4.39-3.84,40.68,40.68,0,0,0-4.64-2.86,95,95,0,0,0-8.74-3.9c-1.33-.54-2.61-1.06-3.8-1.58s-2.25-1-3.3-1.57A32.83,32.83,0,0,1,96.27,142a20.88,20.88,0,0,1-3.06-5.08,16.51,16.51,0,0,1-.59-10.7,13.4,13.4,0,0,1,2.24-4.3,13.6,13.6,0,0,1,3.7-3.07,19.54,19.54,0,0,1,5.36-2,31.2,31.2,0,0,1,6.56-.69,40.53,40.53,0,0,1,7,.52,46.36,46.36,0,0,1,7,1.67,39.38,39.38,0,0,1,6.22,2.62,24.36,24.36,0,0,1,5,3.53,18.93,18.93,0,0,1,3.47,4.52,35.21,35.21,0,0,1,3.7,12.88c.61,4.9.7,10.41,1.07,16.28a66.41,66.41,0,0,0,3.34,18.52,40.71,40.71,0,0,0,4.62,9.08,34.28,34.28,0,0,0,3.35,4.16,30.94,30.94,0,0,0,4.19,3.67,27.69,27.69,0,0,0,5,2.91,23.7,23.7,0,0,0,2.79,1.09l1.43.45c.48.14,1,.23,1.46.34a32.91,32.91,0,0,0,11.74.36,35.3,35.3,0,0,0,11-3.55,32.66,32.66,0,0,0,9.29-7.08,30.25,30.25,0,0,0,7.77-20.19,29.64,29.64,0,0,0-1.86-10.18,20.92,20.92,0,0,0-1-2.39l-.59-1.17c-.2-.38-.45-.75-.67-1.12l-.7-1.12-.79-1.06c-.52-.72-1.09-1.36-1.65-2a48.41,48.41,0,0,0-7.19-6.19c-2.39-1.74-4.65-3.28-6.61-4.88a34.27,34.27,0,0,1-2.7-2.44,21.85,21.85,0,0,1-2.24-2.67,19.07,19.07,0,0,1-2.91-6.11,14,14,0,0,1-.48-3.28,12,12,0,0,1,.32-3.25,13.81,13.81,0,0,1,3.21-6.07,11.9,11.9,0,0,1,6-3.58,18.77,18.77,0,0,1,7.72,0c5.38.94,10.79,3.6,17,4.36a22.21,22.21,0,0,0,4.76.09,19.41,19.41,0,0,0,4.68-1.09,14.27,14.27,0,0,0,4.18-2.36,10.64,10.64,0,0,0,2.92-3.7.56.56,0,0,0-.33-.78.67.67,0,0,0-.82.29h0a10.66,10.66,0,0,1-6.55,4.69,15.52,15.52,0,0,1-4.11.59,18.33,18.33,0,0,1-4.08-.48c-5.44-1.17-10.26-4.22-16.29-6a23.86,23.86,0,0,0-9.87-.92,18.54,18.54,0,0,0-5.23,1.53,19.8,19.8,0,0,0-4.56,2.95,22.15,22.15,0,0,0-6.06,8.56,19.59,19.59,0,0,0-1.26,5.08,22.7,22.7,0,0,0,0,5.08,24.8,24.8,0,0,0,3.08,9.36,30.69,30.69,0,0,0,2.69,4.09,38.42,38.42,0,0,0,3.24,3.56c2.23,2.18,4.51,4,6.55,5.83a40.25,40.25,0,0,1,5.22,5.26,14.34,14.34,0,0,1,.91,1.33l.41.65.35.69c.11.24.25.46.35.7l.28.73a12.34,12.34,0,0,1,.52,1.48,18.1,18.1,0,0,1,.71,6.27,17.32,17.32,0,0,1-4.81,11.14,18.5,18.5,0,0,1-11.14,5.08,16.59,16.59,0,0,1-5.9-.46c-.22-.07-.46-.11-.67-.19l-.64-.25a8.29,8.29,0,0,1-1.21-.55,13.16,13.16,0,0,1-1.18-.68c-.37-.29-.77-.52-1.12-.84-2.94-2.34-5.13-6.15-6.41-10.43a53.36,53.36,0,0,1-1.66-14.46c-.06-5.32.23-11.06-.22-17.29a51.3,51.3,0,0,0-4.82-19.22,36,36,0,0,0-6.43-8.93,42.4,42.4,0,0,0-8.66-6.61,52.44,52.44,0,0,0-9.63-4.28,66.1,66.1,0,0,0-10-2.49,55.32,55.32,0,0,0-21.85.45,41.5,41.5,0,0,0-11.38,4.44A33.91,33.91,0,0,0,79,111.17a32.65,32.65,0,0,0-5.47,11.14,34.36,34.36,0,0,0-1,11.43,33.51,33.51,0,0,0,2.75,10.8A37.36,37.36,0,0,0,81,153.6a45,45,0,0,0,7.63,7.06,55.35,55.35,0,0,0,8.71,5.25c1.51.75,3.08,1.41,4.56,2s2.91,1.1,4.28,1.6c2.72,1,5.17,1.89,7.21,2.87,4.14,2,6.09,3.89,7.67,7.55a21.36,21.36,0,0,1,1.44,6,30.17,30.17,0,0,1-.08,6.65,21.88,21.88,0,0,1-1.6,6,14.49,14.49,0,0,1-3.06,4.55,11.78,11.78,0,0,1-4.41,2.59,8.26,8.26,0,0,1-4.38.31c-.14,0-.29-.08-.44-.12l-.42-.16a6.37,6.37,0,0,1-.88-.48,8.44,8.44,0,0,1-1.75-1.56,23,23,0,0,1-3.24-5.7c-1-2.34-1.87-4.91-3.32-8A30.81,30.81,0,0,0,93,181.59,19.84,19.84,0,0,0,88.21,178,17.37,17.37,0,0,0,74.78,177,20.06,20.06,0,0,0,69,180a21.87,21.87,0,0,0-7.16,9.28,30.36,30.36,0,0,0-2.14,9.85,51.05,51.05,0,0,0,2.27,18,48.94,48.94,0,0,0,8.36,15.75,3.5,3.5,0,0,0,4.78.48,3.19,3.19,0,0,0,1-4.25Z" transform="translate(0 -30.06)"/><path class="e" d="M189.41,105.14a23.78,23.78,0,0,1,9.71.93c.49.14.95.3,1.42.45a23.49,23.49,0,0,1-3.55,1.1C194.06,108.25,189.14,107.54,189.41,105.14ZM156.75,168.7c-1.56-1.48-1.6-3.87-1.38-6s.68-4.17,2.36-5.45a6.62,6.62,0,0,1,4-1.16v.57a56.06,56.06,0,0,0,1.43,13.58,14.43,14.43,0,0,1-1.86,0A7.17,7.17,0,0,1,156.75,168.7ZM179,135.39a13.57,13.57,0,0,0-.2,3.8,9.19,9.19,0,0,0,2.08,3.32,4.18,4.18,0,0,1,1.1,3.58l-.78-.73a38.42,38.42,0,0,1-3.24-3.56,30.69,30.69,0,0,1-2.69-4.09,24.8,24.8,0,0,1-3.08-9.36c0-.29-.06-.59-.08-.88a9,9,0,0,1,4.48,2.05A7.35,7.35,0,0,1,179,135.39ZM184.06,114a13.81,13.81,0,0,0-3.21,6.07c0,.16-.07.31-.1.47a4.53,4.53,0,0,1-2.68-3.36,5.3,5.3,0,0,1,2.77-4.8,11.33,11.33,0,0,1,5.78-1.38c.52,0,1,0,1.57,0A12.25,12.25,0,0,0,184.06,114Zm3.05,76c1.82-.35,3.81.3,5.47-.54,3.09-1.59,1.93-6.5,4.65-8.63,1.67-1.31,4.15-1,6-2.11a6.17,6.17,0,0,0,2.74-5c.14-1.92-.27-3.81-.32-5.73a7.24,7.24,0,0,1,3.59-6.32,30.48,30.48,0,0,1,.7,6.26,30.25,30.25,0,0,1-7.77,20.19,32.66,32.66,0,0,1-9.29,7.08,35,35,0,0,1-9.48,3.28,6.43,6.43,0,0,1-.72-2.26A5.85,5.85,0,0,1,187.11,190Zm2.75-51.39c1.72,1.32,3.62,2.64,5.61,4.09a48.41,48.41,0,0,1,7.19,6.19l.64.75a6,6,0,0,1-2.85,2c-1.95.62-4.3,0-5.19-1.72-.72-1.34-.54-3.15-1.7-4.16s-3.5-.69-4.79-1.77a2.84,2.84,0,0,1-.67-3.15A5.36,5.36,0,0,1,189.86,138.58Zm6.63,28.13a7.16,7.16,0,0,1,1.68,2.1,4.51,4.51,0,0,1,.17,4.37,6.17,6.17,0,0,1-3.44,2.4l-.52.17a18.09,18.09,0,0,0,2.09-7.45C196.5,167.77,196.51,167.24,196.49,166.71Zm-112.72-53c-1.15,2.45.33,5.63-1.55,7.67-1.32,1.44-3.76,1.45-5.45.58a9.5,9.5,0,0,1-2.52-2A32.54,32.54,0,0,1,79,111.17a33.91,33.91,0,0,1,9.76-8.44l.09,0s0,.07,0,.11a6.77,6.77,0,0,1-1.31,6.88C86.33,111.05,84.54,112.05,83.77,113.69Zm17-3.18c1.93.17,4,.65,5.08,2.13a4.16,4.16,0,0,1,.41,3.77c-.8.11-1.58.24-2.33.4a19.54,19.54,0,0,0-5.36,2,12.81,12.81,0,0,0-2.65,2,10.56,10.56,0,0,1-2.27-2.72,5.12,5.12,0,0,1,.83-6C96.08,110.51,98.57,110.32,100.76,110.51Zm-8.74,21a16.72,16.72,0,0,0,1.19,5.35A20.88,20.88,0,0,0,96.27,142a28.54,28.54,0,0,0,5.11,4.85,5.38,5.38,0,0,1-.44.56,7.58,7.58,0,0,1-7.44,2.18A4,4,0,0,1,91,147.77c-.87-1.61.07-3.69-.44-5.45-.77-2.68-4.51-3.71-5.29-6.39-.53-1.85.64-3.94,2.37-5.08a9.67,9.67,0,0,1,4.4-1.4A15.83,15.83,0,0,0,92,131.52Zm-16.2,2.39c3.67.79,6.65,4,6.56,7.55A10.07,10.07,0,0,1,79,148.11c-.37.36-.79.76-1.25,1.16a34.1,34.1,0,0,1-2.56-4.73,33.71,33.71,0,0,1-2.75-10.79A10.68,10.68,0,0,1,75.82,133.91Zm88,50.25c-2.23-1.6-2.47-5-1-7.36a8.59,8.59,0,0,1,1.87-2.08,18.68,18.68,0,0,0,5.05,6.83c.35.32.75.55,1.12.84a13.16,13.16,0,0,0,1.18.68,8.29,8.29,0,0,0,1.21.55l.64.25c.21.08.45.12.67.19a16.59,16.59,0,0,0,5.9.46c.25,0,.49-.07.74-.1a.13.13,0,0,0,0,.06,7.89,7.89,0,0,1-1.87,3.25,4.79,4.79,0,0,1-3.49,1.44c-2.09-.12-3.5-1.89-5.33-2.78C168.46,185.36,165.75,185.51,163.86,184.16Zm-39.38-65.85a46.36,46.36,0,0,0-7-1.67c-1.23-.2-2.47-.34-3.71-.42a6.65,6.65,0,0,1-.18-1.33,6.21,6.21,0,0,1,3.18-5.57,7.51,7.51,0,0,1,5.59-.32,20.21,20.21,0,0,1,4.9,2.55c2,1.31,4.14,2.71,5.15,4.84a12.81,12.81,0,0,1,.54,5.93,23.72,23.72,0,0,0-2.25-1.39A39.38,39.38,0,0,0,124.48,118.31Zm-14.41,33.44c1.19.52,2.47,1,3.8,1.58,2.63,1.07,5.53,2.23,8.54,3.8-.09.51-.21,1-.34,1.54a5.82,5.82,0,0,1-1.84,3.36,7.21,7.21,0,0,1-4.35,1c-2,0-4.12,0-5.67-1.07a5.6,5.6,0,0,1-2.18-4.36,8.61,8.61,0,0,1,2-5.89Zm5.11-50.66c-3.16-.06-6.37.82-9.5.48a7.25,7.25,0,0,1-5.51-3.29A55.53,55.53,0,0,1,122,97.84c2,.33,3.85.74,5.72,1.23a10.75,10.75,0,0,1-5.08,2.39C120.11,101.76,117.66,101.14,115.18,101.09Zm25.93,12.52a7.09,7.09,0,0,1-1.71-3.79,23.49,23.49,0,0,1-.43-5.62,7.81,7.81,0,0,1,.09-1c.85.42,1.7.87,2.54,1.36a42.4,42.4,0,0,1,8.66,6.61q.51.52,1,1.08a16.17,16.17,0,0,1-2.31,1.59C146.48,115.3,143,115.5,141.11,113.61ZM150,156.16c1.32,1.81.59,4.5-1,6.23a14,14,0,0,1-4.35,3.05c-.34-2.49-.55-4.94-.7-7.3-.09-1.41-.16-2.8-.23-4.16.41,0,.82,0,1.23.05C146.82,154.2,148.89,154.68,150,156.16ZM71.82,192.88a15.67,15.67,0,0,0-.94,2.29l-.16-.18a5.56,5.56,0,0,1-.63-6.05c1.25-2.28,4.11-3.45,6.78-3.6,2.12-.13,4.43.37,5.63,2a5.5,5.5,0,0,1,.87,2.7,8.26,8.26,0,0,0-1.85-1.64,5.15,5.15,0,0,0-1.78-.71,3.58,3.58,0,0,0-.91-.1,5.22,5.22,0,0,0-1,.12,7.31,7.31,0,0,0-2.24,1A10.41,10.41,0,0,0,71.82,192.88Zm-2.88,33.55A3.14,3.14,0,0,1,67.56,229a47.55,47.55,0,0,1-3.36-6.15C66.17,223.53,68.79,224.59,68.94,226.43Zm24.2-44.73a30.93,30.93,0,0,1,5.78,8.37c1.29,2.73,2.09,5.06,3,7.19a4,4,0,0,1-3.76.53,4.85,4.85,0,0,1-2.37-2.87,14.6,14.6,0,0,0-1.52-3.45c-1.09-1.48-3-2.34-3.77-4C89.53,185.41,90.93,182.73,93.14,181.7Zm-3.66-26.61c2.56.39,5,1.85,5.8,4.17a11,11,0,0,0,.91,3c.76,1.15,2.33,1.55,3.79,1.68a13.86,13.86,0,0,1,4.3.65,4.67,4.67,0,0,1,2.5,5.15l-.6-.22c-1.37-.5-2.79-1-4.28-1.6s-3.05-1.25-4.56-2a55.35,55.35,0,0,1-8.71-5.25,47.24,47.24,0,0,1-6-5.31A18,18,0,0,1,89.48,155.09Zm-19.89,54.6A44.94,44.94,0,0,0,71.77,220a5.31,5.31,0,0,1-3.3-.24,5.77,5.77,0,0,1-3.29-4.14,4.79,4.79,0,0,1,.37-3.28A5.75,5.75,0,0,1,69.59,209.69Zm-9.22-15.62a5.76,5.76,0,0,1,2.37,1.67,6.41,6.41,0,0,1,1.55,5.41,6.17,6.17,0,0,1-2.71,4.2,5.15,5.15,0,0,1-1.79.66,51,51,0,0,1-.09-6.89A33.68,33.68,0,0,1,60.37,194.07ZM69,180a20.06,20.06,0,0,1,5.78-3,17.47,17.47,0,0,1,4.43-.85,3.53,3.53,0,0,1-1.33,2.38c-1.18,1-2.47.94-3.87,1.32-1.85.5-2.31,1.3-3.56,2.62a4.9,4.9,0,0,1-5.14,1.05A20.19,20.19,0,0,1,69,180Zm89.25,5.13c2,1.77,1.9,5.08,4.11,6.59,1.77,1.21,4.31.79,6.38,1.5a7.12,7.12,0,0,1,4.07,4.15c.22.52.41,1,.58,1.53a30.63,30.63,0,0,1-3.3-.53c-.49-.11-1-.2-1.46-.34l-1.43-.45a23.7,23.7,0,0,1-2.79-1.09,27.69,27.69,0,0,1-5-2.91,30.94,30.94,0,0,1-4.19-3.67,34.28,34.28,0,0,1-3.35-4.16c-.15-.21-.28-.42-.42-.63C153.6,183.78,156.5,183.54,158.25,185.12ZM139.13,129c-.34-.6-.7-1.16-1.08-1.7a6.89,6.89,0,0,1,.8-.59,4.54,4.54,0,0,1,5.08,0c1.22,1,1.42,2.79,1.31,4.38s-.44,3.23,0,4.74c.65,2.18,2.86,3.78,3,6.06.2,3-2.31,4.81-5,5.11-.11-1.77-.26-3.49-.46-5.13A35.21,35.21,0,0,0,139.13,129Zm18.34-3.3a5.71,5.71,0,0,1,1.49.06,57.43,57.43,0,0,1,2.55,13.63c.17,2.33.23,4.59.25,6.79a4.16,4.16,0,0,1-3.32.25c-1.8-.72-2.39-2.85-2.35-4.73s.47-3.83-.12-5.59c-.74-2.19-3-3.84-3-6.16C153,127.79,155.21,125.9,157.47,125.68ZM134.9,180.14a10.46,10.46,0,0,1-4.21-5.45c-.44-1.33-.49-3,.67-4a4.37,4.37,0,0,1,2.77-.75c.57,0,1.16,0,1.77.05a32.59,32.59,0,0,1,1.61,3.66,35.77,35.77,0,0,1,1.69,6.78C138.08,181.19,136.64,181.28,134.9,180.14Zm1,23.66c-.1.21-.19.41-.3.62a31.16,31.16,0,0,1-3.1,5,30.34,30.34,0,0,1-4.25,4.52c-.25.21-.51.4-.76.6a5.39,5.39,0,0,1-.56-.5,5.29,5.29,0,0,1-.51-6.47C128,205.19,132.75,203,135.9,203.8ZM108,212.6a10.87,10.87,0,0,1,8.13,4.85,13.23,13.23,0,0,1,1.1,2.2l-.26.08a23.93,23.93,0,0,1-13.18-.15,19.47,19.47,0,0,1-5.43-2.72,7.36,7.36,0,0,1,.47-.63A11.21,11.21,0,0,1,108,212.6Zm-14.86-9a6,6,0,0,1,1.22,6.59,5.28,5.28,0,0,1-1,1.58,35.35,35.35,0,0,1-4.23-8.67c-.13-.37-.26-.74-.38-1.11A6.73,6.73,0,0,1,93.13,203.63Zm29.29-11a30.17,30.17,0,0,0,.08-6.65,24.48,24.48,0,0,0-.42-2.61,9.84,9.84,0,0,1,5.54,1.4,6.3,6.3,0,0,1,2.47,7.67c-.72,1.56-2.13,2.8-2.74,4.4s-.44,3.51-1.75,4.68c-1.53,1.38-4.07.71-5.5-.63a4.11,4.11,0,0,1-.29-.3,15.83,15.83,0,0,0,1-1.92A21.88,21.88,0,0,0,122.42,192.58Z" transform="translate(0 -30.06)"/><path class="f" d="M196.17,110.18a23.2,23.2,0,0,1,4.93.4c5.37,1,10.78,3.61,17,4.37h0a23.48,23.48,0,0,1-3.37-.17c-6.23-.76-11.64-3.42-17-4.36C197.22,110.32,196.7,110.24,196.17,110.18Zm-4.51,69.26a17.32,17.32,0,0,0,4.81-11.14,18.1,18.1,0,0,0-.71-6.27,12.34,12.34,0,0,0-.52-1.48l-.28-.73c-.1-.24-.24-.46-.35-.7l-.35-.69-.41-.65a14.34,14.34,0,0,0-.91-1.33,40.25,40.25,0,0,0-5.22-5.26c-2-1.79-4.32-3.65-6.55-5.83a38.42,38.42,0,0,1-3.24-3.56,30.69,30.69,0,0,1-2.69-4.09,24.8,24.8,0,0,1-3.08-9.36,22.7,22.7,0,0,1,0-5.08,19.59,19.59,0,0,1,1.26-5.08,22.15,22.15,0,0,1,6.06-8.56,19.8,19.8,0,0,1,4.56-2.95,18.54,18.54,0,0,1,5.23-1.53,20.86,20.86,0,0,1,5.47,0,19.31,19.31,0,0,0-2.12.17,18.54,18.54,0,0,0-5.23,1.53,19.44,19.44,0,0,0-4.56,2.94,22.23,22.23,0,0,0-6.06,8.56,19.69,19.69,0,0,0-1.26,5.08,22.79,22.79,0,0,0,0,5.09,24.91,24.91,0,0,0,3.08,9.36,30.65,30.65,0,0,0,2.7,4.08,35.83,35.83,0,0,0,3.23,3.56c2.23,2.18,4.52,4,6.55,5.84a39.76,39.76,0,0,1,5.23,5.26,14.72,14.72,0,0,1,.9,1.32l.42.65.34.7c.12.23.25.45.35.69l.28.73a10.81,10.81,0,0,1,.52,1.48,18.13,18.13,0,0,1,.71,6.27A17.25,17.25,0,0,1,195,179.6a18.44,18.44,0,0,1-11.14,5.08,17.57,17.57,0,0,1-4.24-.11c.3,0,.59,0,.89,0A18.5,18.5,0,0,0,191.66,179.44Zm38.49-72.2h0a.67.67,0,0,1,.82-.29.56.56,0,0,1,.33.78,10.64,10.64,0,0,1-2.92,3.7c-.16.14-.34.26-.52.39s-.6.21-.91.29a15.52,15.52,0,0,1-4.11.59,18,18,0,0,1-2.53-.2,15.41,15.41,0,0,0,3.29-.56A10.66,10.66,0,0,0,230.15,107.24Zm-148,80.48a3.68,3.68,0,0,1,.92.09,5.56,5.56,0,0,1,1.78.72,8.2,8.2,0,0,1,1.84,1.64,19.33,19.33,0,0,1,3.19,5.5c.8,2,1.55,4.79,2.56,7.62a34.62,34.62,0,0,0,4.48,9,20.14,20.14,0,0,0,10.18,7.41,22.28,22.28,0,0,0,3.89.82,22.83,22.83,0,0,1-7.24-1,20.14,20.14,0,0,1-10.18-7.41,34.62,34.62,0,0,1-4.48-9c-1-2.83-1.76-5.61-2.56-7.63a19.61,19.61,0,0,0-3.19-5.5,8.26,8.26,0,0,0-1.85-1.64,5.76,5.76,0,0,0-.78-.4,4.32,4.32,0,0,1,.45-.12A4,4,0,0,1,82.18,187.72Zm-20.34,1.55A21.87,21.87,0,0,1,69,180a20.06,20.06,0,0,1,5.78-3,17.47,17.47,0,0,1,6.94-.82q.52,0,1,.12a17.8,17.8,0,0,0-4.64.86,19.84,19.84,0,0,0-5.78,3,21.75,21.75,0,0,0-7.16,9.28,30.36,30.36,0,0,0-2.14,9.85,51.08,51.08,0,0,0,2.27,18,48.87,48.87,0,0,0,8.37,15.75,2.89,2.89,0,0,0,.8.68,3.45,3.45,0,0,1-4.16-.85A48.94,48.94,0,0,1,62,217.15a51.05,51.05,0,0,1-2.27-18A30.36,30.36,0,0,1,61.84,189.27Zm50,16.85h0a9.1,9.1,0,0,0,1.48-.36,11.78,11.78,0,0,0,4.41-2.59,14.49,14.49,0,0,0,3.06-4.55,21.88,21.88,0,0,0,1.6-6,30.17,30.17,0,0,0,.08-6.65,21.36,21.36,0,0,0-1.44-6c-1.58-3.66-3.53-5.54-7.67-7.55-2-1-4.49-1.89-7.21-2.87-1.37-.5-2.79-1-4.28-1.6s-3.05-1.25-4.56-2a55.35,55.35,0,0,1-8.71-5.25A45,45,0,0,1,81,153.6a37.36,37.36,0,0,1-5.77-9.06,33.51,33.51,0,0,1-2.75-10.8,34.36,34.36,0,0,1,1-11.43A32.65,32.65,0,0,1,79,111.17a33.91,33.91,0,0,1,9.76-8.44,41.5,41.5,0,0,1,11.38-4.44,53.7,53.7,0,0,1,16.41-1.13,52.4,52.4,0,0,0-13.06,1.3,41.15,41.15,0,0,0-11.38,4.43,33.93,33.93,0,0,0-9.76,8.45,32.48,32.48,0,0,0-5.47,11.14,34.32,34.32,0,0,0-1,11.42,33.7,33.7,0,0,0,2.75,10.8,37.17,37.17,0,0,0,5.77,9.06A44.56,44.56,0,0,0,92,160.82a53.88,53.88,0,0,0,8.71,5.25c1.51.75,3.08,1.42,4.57,2s2.91,1.1,4.28,1.6c2.72,1,5.16,1.88,7.2,2.86,4.14,2,6.09,3.9,7.67,7.55a21.35,21.35,0,0,1,1.44,6,29.57,29.57,0,0,1-.08,6.65,22.07,22.07,0,0,1-1.6,6,15.11,15.11,0,0,1-1.38,2.51,13.14,13.14,0,0,1-1.68,2,11.65,11.65,0,0,1-4.41,2.59,8.27,8.27,0,0,1-4.38.32A3.17,3.17,0,0,0,111.88,206.12Zm12.6-87.81a46.36,46.36,0,0,0-7-1.67c-.94-.15-1.89-.26-2.83-.35a41.77,41.77,0,0,1,6.18.51,47.6,47.6,0,0,1,7,1.67,39.9,39.9,0,0,1,6.23,2.62,24.71,24.71,0,0,1,4.95,3.54,18.74,18.74,0,0,1,3.47,4.52,35,35,0,0,1,3.7,12.87c.61,4.91.7,10.42,1.07,16.28a66.91,66.91,0,0,0,3.34,18.53,40.65,40.65,0,0,0,4.62,9.07,35.16,35.16,0,0,0,3.35,4.17,32.13,32.13,0,0,0,4.19,3.66,26.57,26.57,0,0,0,5,2.91,22.13,22.13,0,0,0,2.79,1.1l1.43.45c.48.13,1,.22,1.46.34a29.91,29.91,0,0,0,3.5.54,31.07,31.07,0,0,1-6.85-.71c-.49-.11-1-.2-1.46-.34l-1.43-.45a23.7,23.7,0,0,1-2.79-1.09,27.69,27.69,0,0,1-5-2.91,30.94,30.94,0,0,1-4.19-3.67,34.28,34.28,0,0,1-3.35-4.16,40.71,40.71,0,0,1-4.62-9.08,66.41,66.41,0,0,1-3.34-18.52c-.37-5.87-.46-11.38-1.07-16.28a35.21,35.21,0,0,0-3.7-12.88,18.93,18.93,0,0,0-3.47-4.52,24.36,24.36,0,0,0-5-3.53A39.38,39.38,0,0,0,124.48,118.31Z" transform="translate(0 -30.06)"/><polygon class="g" points="82.26 220.63 82.99 220.28 79.76 213.89 79.03 214.25 82.26 220.63"/><path class="g" d="M81.36,254.13a.42.42,0,0,0,.42-.27L82.87,251l3,.88a.42.42,0,0,0,.51-.25.36.36,0,0,0-.24-.48l-3.73-1.1L81,253.64a.35.35,0,0,0,.24.47Z" transform="translate(0 -30.06)"/><path class="d" d="M82.18,233.21c-2.44-4.84-6.46-5.44-10.14-3.65s-5.62,5.3-3.18,10.14,8.36,9.19,12,7.39S84.63,238.05,82.18,233.21Z" transform="translate(0 -30.06)"/><path class="b" d="M81.31,236.89a.87.87,0,0,0-1.18-.35.86.86,0,0,0-.43,1.13.88.88,0,0,0,1.18.35A.84.84,0,0,0,81.31,236.89Z" transform="translate(0 -30.06)"/><path class="b" d="M72.37,241.25a.86.86,0,0,1,.43-1.14.88.88,0,0,1,1.18.35.85.85,0,0,1-.43,1.14A.89.89,0,0,1,72.37,241.25Z" transform="translate(0 -30.06)"/><path class="h" d="M57.22,67.6l11.7,12.59a1.65,1.65,0,1,1-2.41,2.24l-8.28-8.91.84,7.09a1.64,1.64,0,0,1-.51,1.4,1.69,1.69,0,0,1-1.42.4l-7-1.36L58.4,90A1.63,1.63,0,1,1,56,92.18L44.31,79.59l0,0-.06-.06,0-.06s0-.05,0-.07l-.05-.06a.1.1,0,0,0,0-.08s0-.06,0-.08,0,0,0-.06,0,0,0-.07a.08.08,0,0,0,0-.08v-.08s0-.06,0-.08V78.7a.15.15,0,0,1,0-.1s0,0,0-.06l0-.09a.06.06,0,0,1,0-.08,0,0,0,0,1,0-.07v-.08s0,0,0-.06,0,0,0,0,0,0,0-.07,0-.06,0-.08,0,0,0-.07a.1.1,0,0,0,0-.08s0,0,0-.07,0-.06,0-.08,0,0,0,0a.23.23,0,0,0,.06-.09l0,0a.21.21,0,0,0,.06-.1l0,0,.08-.07,0,0,.08-.08h.06l.06-.06a.09.09,0,0,1,.07,0l.06-.06a.1.1,0,0,0,.08,0,.1.1,0,0,0,.08,0s0,0,.06,0h.09s0,0,.06,0a.11.11,0,0,1,.1,0,.1.1,0,0,1,.06,0l.09,0h.08a.13.13,0,0,1,.09,0s0,0,.06,0h.08s.07,0,.09,0,0,0,.06,0l9.72,1.9-1.16-9.85s0,0,0,0a.15.15,0,0,1,0-.1s0,0,0-.07,0,0,0-.08,0-.06,0-.07v-.08s0-.06,0-.1,0,0,0-.05a.15.15,0,0,1,0-.1s0,0,0,0l0-.1a.13.13,0,0,0,0-.07s0,0,0-.06a.1.1,0,0,0,0-.07l.06-.06s0,0,0-.07l.06-.06a.07.07,0,0,1,0-.07l.06-.06,0,0,0,0,.08-.08,0,0a.1.1,0,0,0,.07,0l.06,0a.1.1,0,0,0,.08,0,.09.09,0,0,0,.06,0s.08,0,.1,0a.08.08,0,0,0,.05,0,.1.1,0,0,0,.08,0l.1,0h.06l.09,0h.08a.06.06,0,0,1,.07,0h.18s0,0,.07,0l.06,0s.07,0,.09,0h.08a.13.13,0,0,0,.09,0l.06,0s.06,0,.07,0a.1.1,0,0,1,.08,0s0,0,.06,0a.1.1,0,0,1,.07,0s.06,0,.08,0,0,0,.07,0l.06.06,0,.06.06.06S57.21,67.58,57.22,67.6Z" transform="translate(0 -30.06)"/><path class="h" d="M77,69.46l-6.79,4.78a3.56,3.56,0,0,0,4.37.26A4.51,4.51,0,0,0,76.25,72a1.62,1.62,0,0,1,3.19.6,7.53,7.53,0,0,1-3.07,4.5,6.77,6.77,0,0,1-7.79-11.08,5.84,5.84,0,0,1,1-.59,6.55,6.55,0,0,1,5.36,0,5.23,5.23,0,0,1,2.23,1.67,2.07,2.07,0,0,1,.27.76A1.45,1.45,0,0,1,77,69.46Zm-8,2.29,4.68-3.29a3,3,0,0,0-3.18.26A3.51,3.51,0,0,0,69,71.75Z" transform="translate(0 -30.06)"/><path class="h" d="M90.33,60.84l2.44,4.47A1.61,1.61,0,1,1,90,66.85l-2.44-4.47a3.29,3.29,0,0,0-4.38-1.55c-1.84,1-1.78,3.37-.89,5l2.19,4a1.62,1.62,0,1,1-2.84,1.55l-4.93-9a1.6,1.6,0,0,1,2.5-2A6.08,6.08,0,0,1,81.58,58,6.52,6.52,0,0,1,90.33,60.84Z" transform="translate(0 -30.06)"/><path class="h" d="M101,61.82a1.6,1.6,0,0,1-.85,2.12,5.12,5.12,0,0,1-.65.25A3.88,3.88,0,0,1,96.87,64a4,4,0,0,1-1.8-1.87L92.4,55.89l-1.07.45a1.62,1.62,0,1,1-1.27-3l1.07-.46-2-4.74a1.62,1.62,0,0,1,3-1.27l2,4.74.82-.35a1.62,1.62,0,0,1,1.28,3l-.82.34,2.52,5.91c.13.18.21.49.45.57s.39-.05.56-.12A1.62,1.62,0,0,1,101,61.82Z" transform="translate(0 -30.06)"/><path class="h" d="M109.2,60.73a6.77,6.77,0,1,1,4.45-8.48A6.79,6.79,0,0,1,109.2,60.73ZM106.11,51a3.45,3.45,0,1,0,4.34,2.25A3.45,3.45,0,0,0,106.11,51Z" transform="translate(0 -30.06)"/><path class="h" d="M126.12,47.1a1.62,1.62,0,0,1-2.23.52,3.22,3.22,0,0,0-2.37-.43,3.41,3.41,0,0,0-2.6,4.06l1,5a1.62,1.62,0,0,1-3.18.63l-2-10.13A1.62,1.62,0,0,1,116,44.87a1.59,1.59,0,0,1,1.72.79A6.46,6.46,0,0,1,120.89,44a6.54,6.54,0,0,1,4.71.88A1.59,1.59,0,0,1,126.12,47.1Z" transform="translate(0 -30.06)"/><path class="h" d="M139.37,49.35l-8.27.73a3.55,3.55,0,0,0,3.65,2.41,4.44,4.44,0,0,0,2.73-1.27,1.63,1.63,0,0,1,2.29-.18,1.6,1.6,0,0,1,.18,2.29A7.51,7.51,0,0,1,135,55.69a6.77,6.77,0,0,1-1.21-13.49,5.92,5.92,0,0,1,1.19,0,6.49,6.49,0,0,1,4.63,2.7,5.21,5.21,0,0,1,1.1,2.55,2.2,2.2,0,0,1-.15.8A1.47,1.47,0,0,1,139.37,49.35Zm-8.06-2,5.7-.51a3,3,0,0,0-2.89-1.36A3.49,3.49,0,0,0,131.31,47.33Z" transform="translate(0 -30.06)"/><path class="h" d="M156,36.57l-.48,17.15a1.65,1.65,0,0,1-3.23.39,6.7,6.7,0,0,1-3.89,1.08,6.82,6.82,0,0,1,.39-13.64,7,7,0,0,1,3.77,1.24l.18-6.31a1.63,1.63,0,1,1,3.26.09Zm-3.84,11.9a3.56,3.56,0,1,0-3.66,3.46A3.56,3.56,0,0,0,152.14,48.47Z" transform="translate(0 -30.06)"/><path class="h" d="M179.14,54.11c-.86,3-4,4.22-6.63,4a9.49,9.49,0,0,1-1.3-.2,9.05,9.05,0,0,1-6.08-4.42,1.61,1.61,0,0,1,.67-2.17,1.57,1.57,0,0,1,2.14.66A6.07,6.07,0,0,0,172.75,55c1.33.09,2.92-.39,3.3-1.71a2.68,2.68,0,0,0-1.58-3.05,8.82,8.82,0,0,0-1.69-.57,8.08,8.08,0,0,1-4.08-2.07,5.61,5.61,0,0,1-1-6.33,6.52,6.52,0,0,1,6.21-3.28,9.54,9.54,0,0,1,6.49,3.29,1.61,1.61,0,0,1-2.49,2.05,6.16,6.16,0,0,0-4.26-2.14,3.23,3.23,0,0,0-3.1,1.59,2.36,2.36,0,0,0,.53,2.63,5.3,5.3,0,0,0,2.56,1.16,14.48,14.48,0,0,1,2.21.76A5.91,5.91,0,0,1,179.14,54.11Z" transform="translate(0 -30.06)"/><path class="h" d="M195.1,58.32a6.84,6.84,0,0,1-8.72,4.13,7,7,0,0,1-3.2-2.35l-2.12,5.95A1.63,1.63,0,1,1,178,65l5.76-16.15a1.63,1.63,0,0,1,2.1-1,1.67,1.67,0,0,1,1.09,1.59,6.72,6.72,0,0,1,4,.18A6.83,6.83,0,0,1,195.1,58.32ZM192,57.22a3.56,3.56,0,1,0-4.55,2.16A3.58,3.58,0,0,0,192,57.22Z" transform="translate(0 -30.06)"/><path class="h" d="M208.05,61.69a1.61,1.61,0,0,1-2.09-.94A3.32,3.32,0,0,0,204.34,59a3.43,3.43,0,0,0-4.54,1.65l-2.24,4.58a1.62,1.62,0,0,1-2.91-1.43l4.55-9.27a1.62,1.62,0,0,1,3.05,1A6.41,6.41,0,0,1,209,59.62,1.58,1.58,0,0,1,208.05,61.69Z" transform="translate(0 -30.06)"/><path class="h" d="M206.6,71.81a1.67,1.67,0,0,1-.62-2.3l5.27-9a1.67,1.67,0,0,1,2.89,1.69l-5.28,9A1.67,1.67,0,0,1,206.6,71.81Zm8-13.65a1.69,1.69,0,0,1-.63-2.28l.07-.12a1.67,1.67,0,1,1,2.88,1.7l-.06.11A1.68,1.68,0,0,1,214.61,58.16Z" transform="translate(0 -30.06)"/><path class="h" d="M224.14,75.4l-2.94,4.16a1.6,1.6,0,1,1-2.62-1.85l2.94-4.16a3.31,3.31,0,0,0-.54-4.61c-1.72-1.22-3.82-.12-4.89,1.4l-2.65,3.74a1.61,1.61,0,0,1-2.64-1.86l5.94-8.42a1.61,1.61,0,0,1,2.86,1.39,6,6,0,0,1,3.24,1.1A6.51,6.51,0,0,1,224.14,75.4Z" transform="translate(0 -30.06)"/><path class="h" d="M228,85.43a1.61,1.61,0,0,1-2.28.16,4.51,4.51,0,0,1-.51-.47,3.9,3.9,0,0,1-1-2.47,4,4,0,0,1,.89-2.44l4.44-5.15-.88-.76a1.62,1.62,0,1,1,2.11-2.45l.88.76,3.36-3.9a1.62,1.62,0,1,1,2.45,2.11L234,74.72l.68.58a1.62,1.62,0,1,1-2.12,2.45l-.67-.58L227.74,82c-.1.2-.35.41-.31.65s.21.33.35.45A1.62,1.62,0,0,1,228,85.43Z" transform="translate(0 -30.06)"/><path class="h" d="M231.34,91.21a6.79,6.79,0,0,1-2-4.17,1.62,1.62,0,0,1,3.23-.11,3.33,3.33,0,0,0,2,2.65.82.82,0,0,0,1-1.17,2.66,2.66,0,0,0-.72-.92,6.38,6.38,0,0,1-1.28-1.73,4,4,0,0,1,.51-4.21,4,4,0,0,1,3.24-1.48,5.74,5.74,0,0,1,4.18,2.55,4.81,4.81,0,0,1,.94,2.66A1.61,1.61,0,0,1,241,87a1.63,1.63,0,0,1-1.32-.63,1.49,1.49,0,0,1-.32-.67,2.53,2.53,0,0,0-.41-1.18c-.47-.68-1.57-1.71-2.32-.82a1.06,1.06,0,0,0-.07.74,4.2,4.2,0,0,0,.72.84,6.24,6.24,0,0,1,1.43,2.08,4.13,4.13,0,0,1-.91,4.34A4.19,4.19,0,0,1,234,92.74,5.29,5.29,0,0,1,231.34,91.21Z" transform="translate(0 -30.06)"/><path class="h" d="M34.29,253.59a9.71,9.71,0,1,1,17.64-4.22,1.5,1.5,0,0,1-1.73,1.31A1.52,1.52,0,0,1,48.9,249a6.63,6.63,0,1,0-8,5.61A1.54,1.54,0,0,1,42,256.41a1.57,1.57,0,0,1-1.84,1.17A9.82,9.82,0,0,1,34.29,253.59Z" transform="translate(0 -30.06)"/><path class="h" d="M45.3,267.24a6.42,6.42,0,1,1,9.07.44A6.43,6.43,0,0,1,45.3,267.24Zm7.16-6.54a3.27,3.27,0,1,0-.21,4.62A3.25,3.25,0,0,0,52.46,260.7Z" transform="translate(0 -30.06)"/><path class="h" d="M70.66,279.79l-.07.08-3.93,4.78a1.51,1.51,0,0,1-2.15.22,1.53,1.53,0,0,1-.22-2.17l3.93-4.78.07-.08,0-.06a1.87,1.87,0,0,0-.38-2.6,1.9,1.9,0,0,0-2.69.08l0,.06-.07.08-3.94,4.78a1.52,1.52,0,0,1-2.14.22,1.5,1.5,0,0,1-.2-2.16l3.93-4.78.07-.08,0-.06a2,2,0,0,0-3.08-2.53l-4.1,5a1.51,1.51,0,0,1-2.15.19,1.55,1.55,0,0,1-.22-2.14l6.21-7.54a1.59,1.59,0,0,1,2.18-.23,1.43,1.43,0,0,1,.51,1.22,5.34,5.34,0,0,1,2.18,1.06,5.14,5.14,0,0,1,1.84,3.31,5,5,0,0,1,3.61,1.18,5,5,0,0,1,.8,6.92Z" transform="translate(0 -30.06)"/><path class="h" d="M88.36,290.45l0,.08-3.12,5.35a1.48,1.48,0,0,1-2.07.57,1.54,1.54,0,0,1-.58-2.11L85.65,289l.06-.09,0-.06a2,2,0,0,0-3.43-2l0,.07a.9.9,0,0,0,0,.09l-3.11,5.34a1.53,1.53,0,1,1-2.64-1.53l3.12-5.35.05-.08a.43.43,0,0,1,0-.07,2,2,0,0,0-3.45-2L73,288.87a1.53,1.53,0,0,1-2.09.54,1.56,1.56,0,0,1-.57-2.08l4.92-8.45a1.57,1.57,0,0,1,2.11-.57,1.41,1.41,0,0,1,.71,1.12,5.2,5.2,0,0,1,4.67,3.67,5.07,5.07,0,0,1,5.65,7.28Z" transform="translate(0 -30.06)"/><path class="h" d="M94,301.36a6.28,6.28,0,0,1-3.19-8.24l1.85-4.52a1.49,1.49,0,0,1,1.91-.88,1.63,1.63,0,0,1,.91,2l-1.85,4.52a3.32,3.32,0,0,0,1.54,4.22,3.14,3.14,0,0,0,4.07-1.93l1.77-4.33a1.68,1.68,0,0,1,2-.82,1.49,1.49,0,0,1,.77,2l-1.77,4.33A6.28,6.28,0,0,1,94,301.36Z" transform="translate(0 -30.06)"/><path class="h" d="M116.74,301.89l-1.3,4.65a1.52,1.52,0,1,1-2.93-.81l1.3-4.66a3.13,3.13,0,0,0-2-3.94c-1.92-.54-3.44,1.11-3.92,2.81l-1.16,4.19a1.55,1.55,0,0,1-1.89,1.07,1.54,1.54,0,0,1-1.07-1.89l2.62-9.42a1.54,1.54,0,0,1,1.89-1.06,1.49,1.49,0,0,1,1.1,1.39,5.7,5.7,0,0,1,3.25-.05A6.18,6.18,0,0,1,116.74,301.89Z" transform="translate(0 -30.06)"/><path class="h" d="M120.06,309a1.59,1.59,0,0,1-1.28-1.86l1.86-9.7a1.59,1.59,0,0,1,3.12.6l-1.87,9.69A1.58,1.58,0,0,1,120.06,309Zm2.83-14.75a1.61,1.61,0,0,1-1.29-1.84l0-.12a1.59,1.59,0,0,1,1.88-1.26,1.57,1.57,0,0,1,1.23,1.85l0,.13A1.59,1.59,0,0,1,122.89,294.25Z" transform="translate(0 -30.06)"/><path class="h" d="M131.78,309.14a1.53,1.53,0,0,1-1.72,1.32,5,5,0,0,1-.66-.11,3.61,3.61,0,0,1-2.08-1.43,3.79,3.79,0,0,1-.57-2.39l.83-6.4-1.09-.14a1.53,1.53,0,1,1,.4-3l1.09.14.63-4.84a1.53,1.53,0,1,1,3,.39l-.63,4.85.84.11a1.52,1.52,0,0,1,1.32,1.71,1.54,1.54,0,0,1-1.72,1.33l-.83-.11-.79,6c0,.21-.06.5.09.68s.34.15.52.17A1.54,1.54,0,0,1,131.78,309.14Z" transform="translate(0 -30.06)"/><path class="h" d="M146.73,300.33l-.4,11.18a6.42,6.42,0,0,1-6.52,6.24,6.22,6.22,0,0,1-4.68-2.42,1.6,1.6,0,0,1,.23-2.17,1.43,1.43,0,0,1,2.09.25,3.29,3.29,0,0,0,5.89-2l0-1a5.82,5.82,0,0,1-2.95.69,6.11,6.11,0,0,1-5.63-6.5L135,300a1.49,1.49,0,1,1,3,.11l-.17,4.57a2.92,2.92,0,1,0,5.8.21l.17-4.62a1.5,1.5,0,1,1,3,.1Z" transform="translate(0 -30.06)"/><path class="h" d="M171.36,290.32l2.53,16.09a1.56,1.56,0,0,1-1.3,1.79,1.55,1.55,0,0,1-1.78-1.3l-1-6.39L160.48,302l1,6.4a1.57,1.57,0,0,1-1.3,1.78,1.55,1.55,0,0,1-1.78-1.3l-2.53-16.09a1.54,1.54,0,0,1,1.29-1.78,1.57,1.57,0,0,1,1.79,1.29l1,6.65,9.32-1.47-1-6.64a1.56,1.56,0,1,1,3.08-.49Z" transform="translate(0 -30.06)"/><path class="h" d="M187.08,293.06l2.83,9.38a1.45,1.45,0,0,1-1,1.82,1.35,1.35,0,0,1-1.72-1l-.09-.3a5.8,5.8,0,0,1-3.31,2.58,6.18,6.18,0,1,1-3.57-11.83,6.1,6.1,0,0,1,4.18.29l0-.12a1.36,1.36,0,0,1,.88-1.79A1.46,1.46,0,0,1,187.08,293.06Zm-2,5.65a3.21,3.21,0,0,0-6.14,1.86,3.21,3.21,0,0,0,6.14-1.86Z" transform="translate(0 -30.06)"/><path class="h" d="M202.89,291.7l1.94,4.43a1.52,1.52,0,1,1-2.79,1.22l-1.94-4.43a3.11,3.11,0,0,0-4-1.82c-1.83.8-2,3-1.26,4.65l1.74,4a1.53,1.53,0,1,1-2.81,1.23L189.86,292a1.53,1.53,0,0,1,.79-2,1.5,1.5,0,0,1,1.73.38,5.67,5.67,0,0,1,2.49-2.09A6.17,6.17,0,0,1,202.89,291.7Z" transform="translate(0 -30.06)"/><path class="h" d="M210.54,274.18l8.22,14a1.56,1.56,0,0,1-2.39,1.93,6.33,6.33,0,0,1-2.59,2.82,6.47,6.47,0,1,1-6.54-11.17,6.66,6.66,0,0,1,3.65-.89l-3-5.17a1.55,1.55,0,1,1,2.67-1.56Zm2.88,11.5a3.38,3.38,0,1,0-1.2,4.62A3.38,3.38,0,0,0,213.42,285.68Z" transform="translate(0 -30.06)"/><path class="h" d="M229.22,274.38a6.47,6.47,0,0,1-1.23,9.06,6.39,6.39,0,0,1-3.59,1.32,1.57,1.57,0,0,1-.53,1.75,1.53,1.53,0,0,1-2.17-.28l-9.85-12.94a1.55,1.55,0,1,1,2.47-1.87l3.62,4.76a6.74,6.74,0,0,1,2.22-3A6.47,6.47,0,0,1,229.22,274.38Zm-2.46,1.87a3.37,3.37,0,1,0-.64,4.73A3.39,3.39,0,0,0,226.76,276.25Z" transform="translate(0 -30.06)"/><path class="h" d="M240.25,272.83a6.42,6.42,0,0,1-9-9.2,6.42,6.42,0,1,1,9,9.2Zm-6.77-6.94a3.27,3.27,0,1,0,4.63.06A3.27,3.27,0,0,0,233.48,265.89Z" transform="translate(0 -30.06)"/><path class="h" d="M251.23,260.78a6.42,6.42,0,1,1-.93-9A6.43,6.43,0,0,1,251.23,260.78Zm-7.54-6.08a3.27,3.27,0,1,0,4.6-.49A3.26,3.26,0,0,0,243.69,254.7Z" transform="translate(0 -30.06)"/><path class="h" d="M262.54,243.69a1.68,1.68,0,0,1-.21,1.23,1.52,1.52,0,0,1-.91.67l-6.86,1.81,3.21,2a1.56,1.56,0,1,1-1.68,2.63l-13.73-8.76a1.56,1.56,0,0,1,1.67-2.63l7.29,4.65-.22-6.12a1.57,1.57,0,0,1,3.13-.16l.14,5.16,6.25-1.66A1.61,1.61,0,0,1,262.54,243.69Z" transform="translate(0 -30.06)"/></g></svg>